<svg xmlns="http://www.w3.org/2000/svg" viewBox="0 0 32 24" width="18" height="14">
  <clipPath id="c"><rect width="32" height="24" rx="2"/></clipPath>
  <g clip-path="url(#c)">
    <rect width="32" height="24" fill="#fff"/>
    <rect y="0" width="32" height="1.85" fill="#b22234"/><rect y="3.7" width="32" height="1.85" fill="#b22234"/>
    <rect y="7.4" width="32" height="1.85" fill="#b22234"/><rect y="11.1" width="32" height="1.85" fill="#b22234"/>
    <rect y="14.8" width="32" height="1.85" fill="#b22234"/><rect y="18.5" width="32" height="1.85" fill="#b22234"/>
    <rect y="22.2" width="32" height="1.85" fill="#b22234"/>
    <rect width="13" height="13" fill="#3c3b6e"/>
    <circle cx="2" cy="2" r=".4" fill="#fff"/><circle cx="4.5" cy="2" r=".4" fill="#fff"/>
    <circle cx="7" cy="2" r=".4" fill="#fff"/><circle cx="9.5" cy="2" r=".4" fill="#fff"/>
    <circle cx="12" cy="2" r=".4" fill="#fff"/>
    <circle cx="3.2" cy="4" r=".4" fill="#fff"/><circle cx="5.7" cy="4" r=".4" fill="#fff"/>
    <circle cx="8.2" cy="4" r=".4" fill="#fff"/><circle cx="10.7" cy="4" r=".4" fill="#fff"/>
    <circle cx="2" cy="6" r=".4" fill="#fff"/><circle cx="4.5" cy="6" r=".4" fill="#fff"/>
    <circle cx="7" cy="6" r=".4" fill="#fff"/><circle cx="9.5" cy="6" r=".4" fill="#fff"/>
    <circle cx="12" cy="6" r=".4" fill="#fff"/>
    <circle cx="3.2" cy="8" r=".4" fill="#fff"/><circle cx="5.7" cy="8" r=".4" fill="#fff"/>
    <circle cx="8.2" cy="8" r=".4" fill="#fff"/><circle cx="10.7" cy="8" r=".4" fill="#fff"/>
    <circle cx="2" cy="10" r=".4" fill="#fff"/><circle cx="4.5" cy="10" r=".4" fill="#fff"/>
    <circle cx="7" cy="10" r=".4" fill="#fff"/><circle cx="9.5" cy="10" r=".4" fill="#fff"/>
    <circle cx="12" cy="10" r=".4" fill="#fff"/>
  </g>
</svg>
