<svg xmlns="http://www.w3.org/2000/svg" viewBox="0 0 32 24" width="18" height="14">
  <clipPath id="c"><rect width="32" height="24" rx="2"/></clipPath>
  <g clip-path="url(#c)">
    <rect width="32" height="24" fill="#012169"/>
    <polygon points="0,0 13,10 0,24" fill="#fff"/>
    <polygon points="32,0 19,10 32,24" fill="#fff"/>
    <polygon points="0,0 17,0 5,10 0,4" fill="#c8102e"/>
    <polygon points="32,0 15,0 27,10 32,4" fill="#c8102e"/>
    <polygon points="0,24 17,24 5,14 0,20" fill="#c8102e"/>
    <polygon points="32,24 15,24 27,14 32,20" fill="#c8102e"/>
    <polygon points="0,0 0,7 7,12 13,12 0,24 24,24 32,12 23,12 32,0 9,0" fill="#fff"/>
    <polygon points="12,0 8,0 16,6 20,0" fill="#c8102e"/>
    <polygon points="32,16 32,12 20,16 24,24 28,24 32,20" fill="#c8102e"/>
    <polygon points="0,16 0,20 4,24 8,24 0,20" fill="#c8102e"/>
    <polygon points="12,24 8,24 16,18 20,24" fill="#c8102e"/>
    <polygon points="20,0 24,0 16,6 12,0" fill="#c8102e"/>
    <polygon points="32,12 32,8 24,0 20,0 26,4 32,10" fill="#c8102e"/>
    <polygon points="0,12 0,8 6,4 12,0 8,0 3,4 0,7" fill="#c8102e"/>
  </g>
</svg>
