<svg xmlns="http://www.w3.org/2000/svg" viewBox="0 0 32 24" width="18" height="14">
  <rect width="32" height="24" fill="#009b3a"/>
  <polygon points="16,4.8 28,12 16,19.2 4,12" fill="#fedf00"/>
  <circle cx="16" cy="12" r="5" fill="#002776"/>
  <path d="M12,9.5c0-.3.1-.7.2-1l-.6.2c-.3.2-.5.5-.5.9s.2.7.5.9l.6.2c-.1-.3-.2-.7-.2-1.2zM16,7c-.4,0-.8.1-1.2.2.3.4.7.6,1.2.6s.9-.2,1.2-.6c-.4-.1-.8-.2-1.2-.2zM20,9.5c0,.4-.1.8-.2,1.2l.6-.2c.3-.2.5-.5.5-.9s-.2-.7-.5-.9l-.6-.2c.1.3.2.6.2,1zM16,16c.3,0,.5-.2.6-.4-.3-.1-.4-.2-.6-.2s-.3.1-.6.2c.1.2.3.4.6.4zm-2.5-3.5c0,.3.1.6.2.8l.5-.4c-.1-.2-.2-.5-.2-.8s.1-.6.2-.8l-.5-.4c-.2.2-.3.5-.3.8zm1.2-1.5c-.1-.2-.2-.4-.3-.6-.2.1-.4.3-.4.6s.1.5.4.6c.1-.2.2-.4.3-.6zm2.6,0c.1.2.2.4.3.6.2-.1.4-.3.4-.6s-.1-.5-.4-.6c-.1.2-.2.4-.3.6zm.7.7l.5.4c.2-.2.3-.5.3-.8s-.1-.6-.2-.8l-.5.4c.1.2.2.5.2.8zm-2.5,2.2c.1.1.2.1.4.1s.3,0,.4-.1c-.1-.3-.3-.5-.4-.5s-.3.2-.4.5z" fill="#fff" opacity=".9"/>
</svg>
